<svg width="76" height="72" viewBox="0 0 76 72" fill="none" xmlns="http://www.w3.org/2000/svg">
<ellipse cx="37.7632" cy="37" rx="37.7632" ry="35" fill="#E8E8E8"/>
<path d="M29.666 18.308C30.4827 18.3407 31.577 18.3733 32.949 18.406C34.3537 18.4387 35.742 18.455 37.114 18.455C38.682 18.455 40.201 18.4387 41.671 18.406C43.141 18.3733 44.1863 18.357 44.807 18.357C47.845 18.357 50.3603 18.7 52.353 19.386C54.3783 20.0393 55.881 21.003 56.861 22.277C57.8737 23.551 58.38 25.0863 58.38 26.883C58.38 27.9937 58.1513 29.1207 57.694 30.264C57.2367 31.3747 56.4527 32.42 55.342 33.4C54.264 34.3473 52.7777 35.115 50.883 35.703C48.9883 36.2583 46.6037 36.536 43.729 36.536H39.025V35.556H43.239C45.1663 35.556 46.62 35.1967 47.6 34.478C48.6127 33.7267 49.2987 32.7467 49.658 31.538C50.05 30.2967 50.246 28.9247 50.246 27.422C50.246 24.8413 49.7887 22.8487 48.874 21.444C47.9593 20.0067 46.3913 19.288 44.17 19.288C42.896 19.288 42.063 19.5657 41.671 20.121C41.3117 20.6763 41.132 21.8033 41.132 23.502V47.806C41.132 48.982 41.2137 49.864 41.377 50.452C41.573 51.04 41.9323 51.432 42.455 51.628C42.9777 51.824 43.7617 51.9547 44.807 52.02V53C43.925 52.9347 42.8143 52.902 41.475 52.902C40.1357 52.8693 38.78 52.853 37.408 52.853C35.84 52.853 34.3537 52.8693 32.949 52.902C31.577 52.902 30.4827 52.9347 29.666 53V52.02C30.7113 51.9547 31.4953 51.824 32.018 51.628C32.5407 51.432 32.8837 51.04 33.047 50.452C33.243 49.864 33.341 48.982 33.341 47.806V23.502C33.341 22.2933 33.243 21.4113 33.047 20.856C32.8837 20.268 32.5243 19.876 31.969 19.68C31.4463 19.4513 30.6787 19.3207 29.666 19.288V18.308ZM38.927 35.703C40.3317 35.7357 41.5403 35.801 42.553 35.899C43.5983 35.997 44.513 36.095 45.297 36.193C46.081 36.2583 46.7833 36.3073 47.404 36.34C50.3767 36.6013 52.5653 37.2383 53.97 38.251C55.4073 39.2637 56.3383 40.7827 56.763 42.808L57.89 47.855C58.184 49.1617 58.4943 50.0763 58.821 50.599C59.1477 51.1217 59.6213 51.383 60.242 51.383C60.6667 51.3503 61.0097 51.2523 61.271 51.089C61.565 50.893 61.8753 50.6153 62.202 50.256L62.888 50.844C62.006 51.8567 61.0587 52.5753 60.046 53C59.0333 53.4573 57.8083 53.686 56.371 53.686C54.607 53.686 53.1533 53.3103 52.01 52.559C50.8667 51.8077 50.1153 50.4193 49.756 48.394L48.874 43.494C48.6453 42.122 48.3677 40.9297 48.041 39.917C47.7143 38.8717 47.257 38.055 46.669 37.467C46.1137 36.8463 45.3297 36.536 44.317 36.536H39.025L38.927 35.703Z" fill="#292929"/>
<path d="M27.8592 17.8152C29.7787 17.8152 31.2589 18.0267 32.3 18.4496C33.3411 18.84 34.2357 19.2629 34.984 19.7184C35.3744 19.9461 35.6835 20.1251 35.9112 20.2552C36.1715 20.3528 36.4155 20.4016 36.6432 20.4016C36.9685 20.4016 37.1963 20.2227 37.3264 19.8648C37.4891 19.5069 37.6192 18.9701 37.7168 18.2544H38.8392C38.8067 18.8725 38.7579 19.6208 38.6928 20.4992C38.6603 21.3451 38.6277 22.4675 38.5952 23.8664C38.5952 25.2653 38.5952 27.1035 38.5952 29.3808H37.4728C37.3427 27.6891 36.9523 26.0461 36.3016 24.452C35.6509 22.8579 34.7237 21.5565 33.52 20.548C32.3488 19.5069 30.9011 18.9864 29.1768 18.9864C27.6152 18.9864 26.3301 19.4256 25.3216 20.304C24.3131 21.1824 23.8088 22.4024 23.8088 23.964C23.8088 25.2653 24.1341 26.3877 24.7848 27.3312C25.4355 28.2421 26.3789 29.1368 27.6152 30.0152C28.884 30.8936 30.4131 31.9509 32.2024 33.1872C33.764 34.1957 35.1629 35.2043 36.3992 36.2128C37.6355 37.2213 38.6277 38.36 39.376 39.6288C40.1243 40.8976 40.4984 42.4104 40.4984 44.1672C40.4984 46.3144 39.9291 48.0875 38.7904 49.4864C37.6843 50.8853 36.2203 51.9427 34.3984 52.6584C32.5765 53.3416 30.5757 53.6832 28.396 53.6832C26.3789 53.6832 24.7685 53.488 23.5648 53.0976C22.3611 52.7072 21.3525 52.3005 20.5392 51.8776C19.8235 51.4221 19.2704 51.1944 18.88 51.1944C18.5547 51.1944 18.3107 51.3733 18.148 51.7312C18.0179 52.0891 17.904 52.6259 17.8064 53.3416H16.684C16.7491 52.5608 16.7816 51.6499 16.7816 50.6088C16.8141 49.5677 16.8304 48.2176 16.8304 46.5584C16.8629 44.8667 16.8792 42.7357 16.8792 40.1656H18.0016C18.1317 42.3128 18.4896 44.3299 19.0752 46.2168C19.6933 48.0712 20.6205 49.5677 21.8568 50.7064C23.1256 51.8451 24.8011 52.4144 26.8832 52.4144C28.0219 52.4144 29.0304 52.2192 29.9088 51.8288C30.8197 51.4059 31.5517 50.7877 32.1048 49.9744C32.6579 49.1611 32.9344 48.1525 32.9344 46.9488C32.9344 45.5824 32.6091 44.3949 31.9584 43.3864C31.3403 42.3779 30.4781 41.4344 29.372 40.556C28.2984 39.6776 27.0459 38.7829 25.6144 37.872C24.0853 36.8635 22.6539 35.8549 21.32 34.8464C19.9861 33.8379 18.9125 32.6829 18.0992 31.3816C17.3184 30.0803 16.928 28.5349 16.928 26.7456C16.928 24.696 17.4323 23.0205 18.4408 21.7192C19.4819 20.3853 20.832 19.4093 22.4912 18.7912C24.1829 18.1405 25.9723 17.8152 27.8592 17.8152Z" fill="#292929"/>
</svg>
