<svg width="65" height="70" viewBox="0 0 65 70" fill="none" xmlns="http://www.w3.org/2000/svg">
<circle cx="32.5" cy="37.5" r="32.5" fill="#292929"/>
<path d="M24.666 18.308C25.4827 18.3407 26.577 18.3733 27.949 18.406C29.3537 18.4387 30.742 18.455 32.114 18.455C33.682 18.455 35.201 18.4387 36.671 18.406C38.141 18.3733 39.1863 18.357 39.807 18.357C42.845 18.357 45.3603 18.7 47.353 19.386C49.3783 20.0393 50.881 21.003 51.861 22.277C52.8737 23.551 53.38 25.0863 53.38 26.883C53.38 27.9937 53.1513 29.1207 52.694 30.264C52.2367 31.3747 51.4527 32.42 50.342 33.4C49.264 34.3473 47.7777 35.115 45.883 35.703C43.9883 36.2583 41.6037 36.536 38.729 36.536H34.025V35.556H38.239C40.1663 35.556 41.62 35.1967 42.6 34.478C43.6127 33.7267 44.2987 32.7467 44.658 31.538C45.05 30.2967 45.246 28.9247 45.246 27.422C45.246 24.8413 44.7887 22.8487 43.874 21.444C42.9593 20.0067 41.3913 19.288 39.17 19.288C37.896 19.288 37.063 19.5657 36.671 20.121C36.3117 20.6763 36.132 21.8033 36.132 23.502V47.806C36.132 48.982 36.2137 49.864 36.377 50.452C36.573 51.04 36.9323 51.432 37.455 51.628C37.9777 51.824 38.7617 51.9547 39.807 52.02V53C38.925 52.9347 37.8143 52.902 36.475 52.902C35.1357 52.8693 33.78 52.853 32.408 52.853C30.84 52.853 29.3537 52.8693 27.949 52.902C26.577 52.902 25.4827 52.9347 24.666 53V52.02C25.7113 51.9547 26.4953 51.824 27.018 51.628C27.5407 51.432 27.8837 51.04 28.047 50.452C28.243 49.864 28.341 48.982 28.341 47.806V23.502C28.341 22.2933 28.243 21.4113 28.047 20.856C27.8837 20.268 27.5243 19.876 26.969 19.68C26.4463 19.4513 25.6787 19.3207 24.666 19.288V18.308ZM33.927 35.703C35.3317 35.7357 36.5403 35.801 37.553 35.899C38.5983 35.997 39.513 36.095 40.297 36.193C41.081 36.2583 41.7833 36.3073 42.404 36.34C45.3767 36.6013 47.5653 37.2383 48.97 38.251C50.4073 39.2637 51.3383 40.7827 51.763 42.808L52.89 47.855C53.184 49.1617 53.4943 50.0763 53.821 50.599C54.1477 51.1217 54.6213 51.383 55.242 51.383C55.6667 51.3503 56.0097 51.2523 56.271 51.089C56.565 50.893 56.8753 50.6153 57.202 50.256L57.888 50.844C57.006 51.8567 56.0587 52.5753 55.046 53C54.0333 53.4573 52.8083 53.686 51.371 53.686C49.607 53.686 48.1533 53.3103 47.01 52.559C45.8667 51.8077 45.1153 50.4193 44.756 48.394L43.874 43.494C43.6453 42.122 43.3677 40.9297 43.041 39.917C42.7143 38.8717 42.257 38.055 41.669 37.467C41.1137 36.8463 40.3297 36.536 39.317 36.536H34.025L33.927 35.703Z" fill="#E8E8E8"/>
<path d="M21.5752 18.0362C23.4553 18.0362 24.9053 18.2433 25.925 18.6576C26.9447 19.04 27.8211 19.4543 28.554 19.9004C28.9364 20.1235 29.2391 20.2987 29.4622 20.4262C29.7171 20.5218 29.9561 20.5696 30.1792 20.5696C30.4979 20.5696 30.7209 20.3943 30.8484 20.0438C31.0077 19.6933 31.1352 19.1675 31.2308 18.4664H32.3302C32.2983 19.0719 32.2505 19.8048 32.1868 20.6652C32.1549 21.4937 32.1231 22.5931 32.0912 23.9634C32.0912 25.3337 32.0912 27.1341 32.0912 29.3648H30.9918C30.8643 27.7077 30.4819 26.0985 29.8446 24.537C29.2073 22.9755 28.2991 21.7009 27.12 20.713C25.9728 19.6933 24.5547 19.1834 22.8658 19.1834C21.3362 19.1834 20.0775 19.6136 19.0896 20.474C18.1017 21.3344 17.6078 22.5294 17.6078 24.059C17.6078 25.3337 17.9265 26.4331 18.5638 27.3572C19.2011 28.2495 20.1253 29.1258 21.3362 29.9862C22.579 30.8466 24.0767 31.8823 25.8294 33.0932C27.359 34.0811 28.7293 35.0689 29.9402 36.0568C31.1511 37.0447 32.1231 38.16 32.856 39.4028C33.5889 40.6456 33.9554 42.1274 33.9554 43.8482C33.9554 45.9514 33.3977 47.6881 32.2824 49.0584C31.1989 50.4287 29.7649 51.4643 27.9804 52.1654C26.1959 52.8346 24.2361 53.1692 22.101 53.1692C20.1253 53.1692 18.5479 52.978 17.3688 52.5956C16.1897 52.2132 15.2019 51.8149 14.4052 51.4006C13.7041 50.9545 13.1624 50.7314 12.78 50.7314C12.4613 50.7314 12.2223 50.9067 12.063 51.2572C11.9355 51.6077 11.824 52.1335 11.7284 52.8346H10.629C10.6927 52.0698 10.7246 51.1775 10.7246 50.1578C10.7565 49.1381 10.7724 47.8156 10.7724 46.1904C10.8043 44.5333 10.8202 42.4461 10.8202 39.9286H11.9196C12.0471 42.0318 12.3976 44.0075 12.9712 45.8558C13.5767 47.6722 14.4849 49.1381 15.6958 50.2534C16.9386 51.3687 18.5797 51.9264 20.6192 51.9264C21.7345 51.9264 22.7224 51.7352 23.5828 51.3528C24.4751 50.9385 25.1921 50.3331 25.7338 49.5364C26.2755 48.7397 26.5464 47.7519 26.5464 46.5728C26.5464 45.2344 26.2277 44.0713 25.5904 43.0834C24.9849 42.0955 24.1405 41.1714 23.057 40.311C22.0054 39.4506 20.7785 38.5743 19.3764 37.682C17.8787 36.6941 16.4765 35.7063 15.17 34.7184C13.8635 33.7305 12.8119 32.5993 12.0152 31.3246C11.2504 30.0499 10.868 28.5363 10.868 26.7836C10.868 24.776 11.3619 23.1349 12.3498 21.8602C13.3695 20.5537 14.692 19.5977 16.3172 18.9922C17.9743 18.3549 19.7269 18.0362 21.5752 18.0362Z" fill="#E8E8E8"/>
</svg>
