<svg width="162" height="47" viewBox="0 0 162 47" fill="none" xmlns="http://www.w3.org/2000/svg">
<path d="M61.6309 11.3164C62.4043 11.3164 63.0781 11.3516 63.6523 11.4219C64.2383 11.4922 64.7832 11.5918 65.2871 11.7207C65.8027 11.8379 66.3125 11.9785 66.8164 12.1426C67.3203 12.3066 67.8828 12.4883 68.5039 12.6875L68.4336 14.5332C67.9883 14.3809 67.5371 14.2344 67.0801 14.0938C66.623 13.9531 66.1426 13.8301 65.6387 13.7246C65.1465 13.6191 64.6191 13.5371 64.0566 13.4785C63.4941 13.4082 62.8906 13.373 62.2461 13.373C61.9531 13.373 61.6133 13.4199 61.2266 13.5137C60.8398 13.6074 60.4707 13.7656 60.1191 13.9883C59.7676 14.2109 59.4688 14.5039 59.2227 14.8672C58.9766 15.2305 58.8535 15.6816 58.8535 16.2207C58.8535 16.7246 59.0527 17.3164 59.4512 17.9961C59.8496 18.6641 60.5176 19.502 61.4551 20.5098L64.5488 23.8496C65.2285 24.5527 65.8789 25.25 66.5 25.9414C67.1328 26.6211 67.6836 27.2949 68.1523 27.9629C68.6211 28.6191 68.9961 29.2754 69.2773 29.9316C69.5586 30.5762 69.6992 31.2148 69.6992 31.8477C69.6992 33.0781 69.4707 34.127 69.0137 34.9941C68.5684 35.8496 67.9824 36.5469 67.2559 37.0859C66.541 37.6133 65.7266 38 64.8125 38.2461C63.8984 38.4922 62.9844 38.6152 62.0703 38.6152C61.2734 38.6152 60.5293 38.5684 59.8379 38.4746C59.1465 38.3926 58.4844 38.2637 57.8516 38.0879C57.2305 37.9238 56.6328 37.7188 56.0586 37.4727C55.4844 37.2148 54.916 36.9219 54.3535 36.5938L54.582 34.6953C55.0391 34.9062 55.5078 35.123 55.9883 35.3457C56.4688 35.5566 56.9551 35.75 57.4473 35.9258C57.9512 36.0898 58.4609 36.2246 58.9766 36.3301C59.4922 36.4355 60.0078 36.4883 60.5234 36.4883C62.2461 36.4883 63.5469 36.1367 64.4258 35.4336C65.3047 34.7188 65.7441 33.6875 65.7441 32.3398C65.7441 31.9297 65.6504 31.5137 65.4629 31.0918C65.2871 30.6699 65.041 30.2363 64.7246 29.791C64.4082 29.334 64.0332 28.8652 63.5996 28.3848C63.1777 27.9043 62.7266 27.4004 62.2461 26.873L59.1172 23.4629C58.3203 22.4902 57.6523 21.6582 57.1133 20.9668C56.5742 20.2754 56.1406 19.6602 55.8125 19.1211C55.4961 18.582 55.2676 18.0898 55.127 17.6445C54.998 17.1875 54.9336 16.7129 54.9336 16.2207C54.9336 15.2715 55.127 14.4863 55.5137 13.8652C55.9004 13.2324 56.4102 12.7285 57.043 12.3535C57.6758 11.9785 58.3906 11.7148 59.1875 11.5625C59.9844 11.3984 60.7988 11.3164 61.6309 11.3164ZM94.3438 38H90.2832L88.8418 34.6074H74.5508L73.1445 38H71.0176L80.5977 15.2188L79.1914 11.8613H83.3047L94.3438 38ZM75.2715 32.8848H88.1211L81.6348 17.6973L75.2715 32.8848ZM117.125 38H114.172L99.6875 17.6973V38H97.8945V15.1836L95.5566 11.8613H100.268L115.314 32.9902V11.8613H117.125V38ZM126.107 13.584H120.922V11.8613H129.957V33.5352C129.957 35.2812 129.746 36.793 129.324 38.0703C128.902 39.3594 128.281 40.4551 127.461 41.3574C126.641 42.2715 125.621 43.0156 124.402 43.5898C123.184 44.1641 121.783 44.6152 120.201 44.9434L119.604 43.4316C120.307 43.2559 121.027 43.0156 121.766 42.7109C122.516 42.4062 123.201 42.0195 123.822 41.5508C124.443 41.0938 124.965 40.543 125.387 39.8984C125.809 39.2539 126.049 38.5039 126.107 37.6484V13.584ZM140.398 38H136.531V11.8613H140.398V38ZM161.123 11.8613V13.584H154.795V38H150.945V13.584H144.564V11.8613H161.123Z" fill="#EFEFEF"/>
<ellipse cx="20.5" cy="25" rx="20.5" ry="19" fill="#E8E8E8"/>
<path d="M14.122 12.636C14.672 12.658 15.409 12.68 16.333 12.702C17.279 12.724 18.214 12.735 19.138 12.735C20.194 12.735 21.217 12.724 22.207 12.702C23.197 12.68 23.901 12.669 24.319 12.669C26.365 12.669 28.059 12.9 29.401 13.362C30.765 13.802 31.777 14.451 32.437 15.309C33.119 16.167 33.46 17.201 33.46 18.411C33.46 19.159 33.306 19.918 32.998 20.688C32.69 21.436 32.162 22.14 31.414 22.8C30.688 23.438 29.687 23.955 28.411 24.351C27.135 24.725 25.529 24.912 23.593 24.912H20.425V24.252H23.263C24.561 24.252 25.54 24.01 26.2 23.526C26.882 23.02 27.344 22.36 27.586 21.546C27.85 20.71 27.982 19.786 27.982 18.774C27.982 17.036 27.674 15.694 27.058 14.748C26.442 13.78 25.386 13.296 23.89 13.296C23.032 13.296 22.471 13.483 22.207 13.857C21.965 14.231 21.844 14.99 21.844 16.134V32.502C21.844 33.294 21.899 33.888 22.009 34.284C22.141 34.68 22.383 34.944 22.735 35.076C23.087 35.208 23.615 35.296 24.319 35.34V36C23.725 35.956 22.977 35.934 22.075 35.934C21.173 35.912 20.26 35.901 19.336 35.901C18.28 35.901 17.279 35.912 16.333 35.934C15.409 35.934 14.672 35.956 14.122 36V35.34C14.826 35.296 15.354 35.208 15.706 35.076C16.058 34.944 16.289 34.68 16.399 34.284C16.531 33.888 16.597 33.294 16.597 32.502V16.134C16.597 15.32 16.531 14.726 16.399 14.352C16.289 13.956 16.047 13.692 15.673 13.56C15.321 13.406 14.804 13.318 14.122 13.296V12.636ZM20.359 24.351C21.305 24.373 22.119 24.417 22.801 24.483C23.505 24.549 24.121 24.615 24.649 24.681C25.177 24.725 25.65 24.758 26.068 24.78C28.07 24.956 29.544 25.385 30.49 26.067C31.458 26.749 32.085 27.772 32.371 29.136L33.13 32.535C33.328 33.415 33.537 34.031 33.757 34.383C33.977 34.735 34.296 34.911 34.714 34.911C35 34.889 35.231 34.823 35.407 34.713C35.605 34.581 35.814 34.394 36.034 34.152L36.496 34.548C35.902 35.23 35.264 35.714 34.582 36C33.9 36.308 33.075 36.462 32.107 36.462C30.919 36.462 29.94 36.209 29.17 35.703C28.4 35.197 27.894 34.262 27.652 32.898L27.058 29.598C26.904 28.674 26.717 27.871 26.497 27.189C26.277 26.485 25.969 25.935 25.573 25.539C25.199 25.121 24.671 24.912 23.989 24.912H20.425L20.359 24.351Z" fill="#292929"/>
<path d="M13.088 12.428C14.3467 12.428 15.3173 12.5667 16 12.844C16.6827 13.1 17.2693 13.3773 17.76 13.676C18.016 13.8253 18.2187 13.9427 18.368 14.028C18.5387 14.092 18.6987 14.124 18.848 14.124C19.0613 14.124 19.2107 14.0067 19.296 13.772C19.4027 13.5373 19.488 13.1853 19.552 12.716H20.288C20.2667 13.1213 20.2347 13.612 20.192 14.188C20.1707 14.7427 20.1493 15.4787 20.128 16.396C20.128 17.3133 20.128 18.5187 20.128 20.012H19.392C19.3067 18.9027 19.0507 17.8253 18.624 16.78C18.1973 15.7347 17.5893 14.8813 16.8 14.22C16.032 13.5373 15.0827 13.196 13.952 13.196C12.928 13.196 12.0853 13.484 11.424 14.06C10.7627 14.636 10.432 15.436 10.432 16.46C10.432 17.3133 10.6453 18.0493 11.072 18.668C11.4987 19.2653 12.1173 19.852 12.928 20.428C13.76 21.004 14.7627 21.6973 15.936 22.508C16.96 23.1693 17.8773 23.8307 18.688 24.492C19.4987 25.1533 20.1493 25.9 20.64 26.732C21.1307 27.564 21.376 28.556 21.376 29.708C21.376 31.116 21.0027 32.2787 20.256 33.196C19.5307 34.1133 18.5707 34.8067 17.376 35.276C16.1813 35.724 14.8693 35.948 13.44 35.948C12.1173 35.948 11.0613 35.82 10.272 35.564C9.48267 35.308 8.82133 35.0413 8.288 34.764C7.81867 34.4653 7.456 34.316 7.2 34.316C6.98667 34.316 6.82667 34.4333 6.72 34.668C6.63467 34.9027 6.56 35.2547 6.496 35.724H5.76C5.80267 35.212 5.824 34.6147 5.824 33.932C5.84533 33.2493 5.856 32.364 5.856 31.276C5.87733 30.1667 5.888 28.7693 5.888 27.084H6.624C6.70933 28.492 6.944 29.8147 7.328 31.052C7.73333 32.268 8.34133 33.2493 9.152 33.996C9.984 34.7427 11.0827 35.116 12.448 35.116C13.1947 35.116 13.856 34.988 14.432 34.732C15.0293 34.4547 15.5093 34.0493 15.872 33.516C16.2347 32.9827 16.416 32.3213 16.416 31.532C16.416 30.636 16.2027 29.8573 15.776 29.196C15.3707 28.5347 14.8053 27.916 14.08 27.34C13.376 26.764 12.5547 26.1773 11.616 25.58C10.6133 24.9187 9.67467 24.2573 8.8 23.596C7.92533 22.9347 7.22133 22.1773 6.688 21.324C6.176 20.4707 5.92 19.4573 5.92 18.284C5.92 16.94 6.25067 15.8413 6.912 14.988C7.59467 14.1133 8.48 13.4733 9.568 13.068C10.6773 12.6413 11.8507 12.428 13.088 12.428Z" fill="#292929"/>
</svg>
